<svg width="18" height="25" viewBox="0 0 18 25" fill="none" xmlns="http://www.w3.org/2000/svg">
<path fill-rule="evenodd" clip-rule="evenodd" d="M11.0455 3.47353C10.72 3.47353 10.4079 3.60432 10.1777 3.83712C9.94755 4.06993 9.81825 4.38568 9.81825 4.71491C9.81825 5.17197 9.45194 5.5425 9.00007 5.5425C8.5482 5.5425 8.18188 5.17197 8.18188 4.71491C8.18188 3.9467 8.48359 3.20995 9.02062 2.66674C9.55766 2.12353 10.286 1.81836 11.0455 1.81836C11.805 1.81836 12.5334 2.12353 13.0704 2.66674C13.6075 3.20995 13.9092 3.9467 13.9092 4.71491V10.9218C13.9092 11.3789 13.5428 11.7494 13.091 11.7494C12.6391 11.7494 12.2728 11.3789 12.2728 10.9218V4.71491C12.2728 4.38568 12.1435 4.06993 11.9133 3.83712C11.6832 3.60432 11.371 3.47353 11.0455 3.47353Z" fill="white"/>
<path fill-rule="evenodd" clip-rule="evenodd" d="M6.95446 1.81826C6.62896 1.81826 6.3168 1.94905 6.08664 2.18185C5.85649 2.41465 5.72718 2.7304 5.72718 3.05964V6.36998C5.72718 6.82705 5.36087 7.19757 4.909 7.19757C4.45713 7.19757 4.09082 6.82705 4.09082 6.36998V3.05964C4.09082 2.29142 4.39252 1.55468 4.92956 1.01147C5.4666 0.468257 6.19497 0.163086 6.95446 0.163086C7.71394 0.163086 8.44232 0.468257 8.97935 1.01147C9.51639 1.55468 9.81809 2.29142 9.81809 3.05964V10.0941C9.81809 10.5512 9.45178 10.9217 8.99991 10.9217C8.54804 10.9217 8.18173 10.5512 8.18173 10.0941V3.05964C8.18173 2.7304 8.05243 2.41465 7.82227 2.18185C7.59211 1.94905 7.27995 1.81826 6.95446 1.81826Z" fill="white"/>
<path fill-rule="evenodd" clip-rule="evenodd" d="M2.86364 5.12856C2.53814 5.12856 2.22598 5.25935 1.99582 5.49215C1.76567 5.72496 1.63636 6.04071 1.63636 6.36994V15.0596C1.63636 17.035 2.41217 18.9295 3.79312 20.3263C5.17407 21.7231 7.04704 22.5079 9 22.5079C10.953 22.5079 12.8259 21.7231 14.2069 20.3263C15.5878 18.9295 16.3636 17.035 16.3636 15.0596V10.9217C16.3636 10.5924 16.2343 10.2767 16.0042 10.0439C15.774 9.81107 15.4619 9.68029 15.1364 9.68029C14.8109 9.68029 14.4987 9.81107 14.2686 10.0439C14.0384 10.2767 13.9091 10.5924 13.9091 10.9217V12.9906C13.9091 13.4477 13.5428 13.8182 13.0909 13.8182C12.2229 13.8182 11.3905 14.167 10.7767 14.7878C10.163 15.4086 9.81818 16.2506 9.81818 17.1286C9.81818 17.5856 9.45187 17.9561 9 17.9561C8.54813 17.9561 8.18182 17.5856 8.18182 17.1286C8.18182 15.8116 8.69902 14.5486 9.61966 13.6174C10.3451 12.8836 11.2743 12.4032 12.2727 12.2325V10.9217C12.2727 10.1535 12.5744 9.4167 13.1115 8.87349C13.6485 8.33028 14.3769 8.02511 15.1364 8.02511C15.8958 8.02511 16.6242 8.33028 17.1613 8.87349C17.6983 9.4167 18 10.1535 18 10.9217V15.0596C18 17.474 17.0518 19.7895 15.364 21.4967C13.6761 23.2039 11.3869 24.163 9 24.163C6.61305 24.163 4.32387 23.2039 2.63604 21.4967C0.948212 19.7895 0 17.474 0 15.0596V6.36994C0 5.60173 0.301704 4.86498 0.83874 4.32177C1.37578 3.77856 2.10415 3.47339 2.86364 3.47339C3.62312 3.47339 4.3515 3.77856 4.88853 4.32177C5.42557 4.86498 5.72727 5.60173 5.72727 6.36994V10.9217C5.72727 11.3787 5.36096 11.7493 4.90909 11.7493C4.45722 11.7493 4.09091 11.3787 4.09091 10.9217V6.36994C4.09091 6.04071 3.96161 5.72496 3.73145 5.49215C3.50129 5.25935 3.18913 5.12856 2.86364 5.12856Z" fill="white"/>
</svg>
