<svg width="21" height="25" viewBox="0 0 21 25" fill="none" xmlns="http://www.w3.org/2000/svg">
<path fill-rule="evenodd" clip-rule="evenodd" d="M1.4331 1.1468C1.71568 0.986878 2.03517 0.906396 2.35861 0.91366C2.68136 0.920907 2.99638 1.01527 3.27131 1.18702C3.27189 1.18739 3.27248 1.18776 3.27306 1.18812L19.6195 11.338C19.8868 11.5001 20.1083 11.7295 20.2626 12.0041C20.4182 12.2811 20.5 12.5944 20.5 12.9132C20.5 13.232 20.4182 13.5454 20.2626 13.8223C20.1083 14.0969 19.8868 14.3264 19.6195 14.4884L3.27306 24.6383C3.27238 24.6387 3.2717 24.6391 3.27103 24.6396C2.99616 24.8112 2.68125 24.9055 2.35861 24.9128C2.03517 24.92 1.71568 24.8395 1.4331 24.6796C1.15051 24.5197 0.915063 24.2861 0.751039 24.003C0.587015 23.7198 0.500356 23.3974 0.5 23.0689V2.75748C0.500356 2.429 0.587015 2.10657 0.751039 1.82343C0.915063 1.5403 1.15051 1.30673 1.4331 1.1468ZM19.15 12.1285L18.6811 12.907L18.687 12.9034C18.6854 12.9044 18.684 12.9058 18.6831 12.9075C18.6821 12.9092 18.6816 12.9112 18.6816 12.9132C18.6816 12.9152 18.6821 12.9172 18.6831 12.9189C18.6841 12.9207 18.6855 12.9221 18.6872 12.9231L19.15 12.1285ZM18.671 12.9132L2.3184 2.75953L2.3184 23.0669L2.32139 23.065L18.671 12.9132Z" fill="#E1E1E6"/>
</svg>
